# xmcd
#
# Track frame offsets: 
#        150
#        13405
#        24875
#        37960
#        50162
#        61455
#        76087
#        88462
#        100482
#        113010
#        125695
#        138100
#
# Disc length: 1997 seconds
#
# Revision: 0
# Processed by: cddbd v1.5.2PL0 Copyright (c) Steve Scherf et al.
# Submitted via: ExactAudioCopy v0.95b4
#
DISCID=9f07cb0c
DTITLE=Wynette, Tammy - Tammy Wynette Collection - Disc 2
DYEAR=2000
DGENRE=Country
TTITLE0=Almost Persuaded
TTITLE1=We Called It Everything But Quits
TTITLE2=Satin Sheets
TTITLE3=Help Me Make It Through The Night
TTITLE4=Sweet Dreams
TTITLE5=Gentle On My Mind
TTITLE6=Don't Touch Me
TTITLE7=There Goes My Everything
TTITLE8=Cry
TTITLE9=It's Just A Matter Of Time
TTITLE10=Funny Face
TTITLE11=He's Got The Whole World In His Hands
EXTD=
EXTT0=
EXTT1=
EXTT2=
EXTT3=
EXTT4=
EXTT5=
EXTT6=
EXTT7=
EXTT8=
EXTT9=
EXTT10=
EXTT11=
PLAYORDER=
